<svg width="50" height="40" viewBox="0 0 50 40" fill="none" xmlns="http://www.w3.org/2000/svg">
<path d="M25.0049 40C19.6513 40 14.6259 37.918 10.8517 34.1539C7.0673 30.3795 4.98535 25.3641 4.98535 20.0206V16.9642C4.98535 16.0616 5.72378 15.3231 6.6263 15.3231C7.52882 15.3231 8.26725 16.0616 8.26725 16.9642V20.0206C8.26725 29.2308 15.7746 36.718 25.0049 36.718C30.1021 36.7077 34.8814 34.4308 38.0915 30.4616C38.6658 29.7539 39.6914 29.6513 40.3991 30.2154C41.1067 30.7898 41.2093 31.8154 40.6452 32.5231C36.7992 37.2718 31.1072 39.9897 25.0049 40ZM43.3323 24.677C42.4297 24.677 41.6913 23.9385 41.6913 23.0359V19.9795C41.6913 10.7693 34.184 3.28216 24.9536 3.28216C24.9434 3.28216 24.9434 3.28216 24.9331 3.28216C19.8154 3.28216 15.0567 5.56933 11.8671 9.56932C11.303 10.277 10.2672 10.3898 9.55949 9.82573C8.85184 9.26163 8.73902 8.22573 9.3031 7.51804C11.1697 5.17959 13.5798 3.26164 16.2669 1.96934C18.9539 0.677034 21.9589 -0.0101432 24.9536 0.000113159C35.989 0.000113159 44.9732 8.96419 44.9732 19.9795V23.0359C44.9732 23.9385 44.2348 24.677 43.3323 24.677Z" fill="#3FBD40"/>
<path d="M11.2597 21.6443C10.8495 21.6443 10.4392 21.4905 10.1213 21.1931L6.56249 17.7879L3.18829 21.1623C2.55243 21.7982 1.50632 21.7982 0.870455 21.1623C0.234588 20.5264 0.234588 19.4802 0.870455 18.8444L5.38306 14.3315C6.00867 13.6957 7.03426 13.6854 7.68039 14.311L12.3981 18.8238C13.0545 19.4495 13.075 20.4854 12.4494 21.1418C12.1212 21.47 11.6905 21.6443 11.2597 21.6443Z" fill="#3FBD40"/>
<path d="M43.4674 26.1521C43.0572 26.1521 42.6469 25.9983 42.329 25.7008L37.6113 21.188C36.9549 20.5624 36.9344 19.5265 37.56 18.8701C38.1856 18.2137 39.2214 18.1931 39.8778 18.8188L43.4366 22.2239L46.8108 18.8496C47.4467 18.2137 48.4928 18.2137 49.1287 18.8496C49.7645 19.4855 49.7645 20.5316 49.1287 21.1675L44.6161 25.6803C44.3084 25.988 43.8879 26.1521 43.4674 26.1521Z" fill="#3FBD40"/>
</svg>
