<svg width="55" height="54" viewBox="0 0 55 54" fill="none" xmlns="http://www.w3.org/2000/svg">
<path fill-rule="evenodd" clip-rule="evenodd" d="M5.39551 27C5.39551 14.8883 15.2213 5.0625 27.333 5.0625C39.4447 5.0625 49.2705 14.8883 49.2705 27C49.2705 39.1117 39.4447 48.9375 27.333 48.9375C15.2213 48.9375 5.39551 39.1117 5.39551 27ZM27.333 8.4375C17.0853 8.4375 8.77051 16.7523 8.77051 27C8.77051 37.2477 17.0853 45.5625 27.333 45.5625C37.5807 45.5625 45.8955 37.2477 45.8955 27C45.8955 16.7523 37.5807 8.4375 27.333 8.4375Z" fill="#3FBD40"/>
<path fill-rule="evenodd" clip-rule="evenodd" d="M38.5434 17.2704C39.257 17.8699 39.3496 18.9343 38.7501 19.6479L24.5752 36.5229C24.261 36.8969 23.8002 37.1165 23.3118 37.1248C22.8235 37.1331 22.3555 36.9295 22.0287 36.5664L15.9537 29.8164C15.3303 29.1237 15.3864 28.0567 16.0791 27.4332C16.7719 26.8098 17.8389 26.8659 18.4623 27.5587L23.2391 32.8662L36.1659 17.4772C36.7653 16.7635 37.8298 16.671 38.5434 17.2704Z" fill="#3FBD40"/>
</svg>
