<svg width="42" height="44" viewBox="0 0 42 44" fill="none" xmlns="http://www.w3.org/2000/svg">
<path fill-rule="evenodd" clip-rule="evenodd" d="M4.43864 7.52915C3.68221 8.27431 3.42816 8.92675 3.42816 9.46271C3.42816 9.99866 3.68221 10.6511 4.43864 11.3963C5.20058 12.1469 6.38353 12.895 7.97173 13.5567C11.1413 14.8774 15.6286 15.7311 20.6663 15.7311C25.7041 15.7311 30.1914 14.8774 33.361 13.5567C34.9492 12.895 36.1321 12.1469 36.8941 11.3963C37.6505 10.6511 37.9045 9.99866 37.9045 9.46271C37.9045 8.92675 37.6505 8.27431 36.8941 7.52915C36.1321 6.77855 34.9492 6.03045 33.361 5.3687C30.1914 4.04806 25.7041 3.19427 20.6663 3.19427C15.6286 3.19427 11.1413 4.04806 7.97173 5.3687C6.38353 6.03045 5.20058 6.77855 4.43864 7.52915ZM6.76626 2.47558C10.4029 0.960322 15.3182 0.0600586 20.6663 0.0600586C26.0145 0.0600586 30.9298 0.960322 34.5664 2.47558C36.3813 3.23179 37.9523 4.17211 39.0936 5.29637C40.2404 6.42607 41.0387 7.83493 41.0387 9.46271C41.0387 11.0905 40.2404 12.4993 39.0936 13.629C37.9523 14.7533 36.3813 15.6936 34.5664 16.4498C30.9298 17.9651 26.0145 18.8654 20.6663 18.8654C15.3182 18.8654 10.4029 17.9651 6.76626 16.4498C4.95137 15.6936 3.38035 14.7533 2.2391 13.629C1.09232 12.4993 0.293945 11.0905 0.293945 9.46271C0.293945 7.83493 1.09232 6.42607 2.2391 5.29637C3.38035 4.17211 4.95137 3.23179 6.76626 2.47558Z" fill="#008FED"/>
<path fill-rule="evenodd" clip-rule="evenodd" d="M1.86105 16.3188C2.72654 16.3188 3.42816 17.0204 3.42816 17.8859C3.42816 18.4215 3.6822 19.0739 4.43899 19.8192C5.20125 20.5698 6.3846 21.318 7.97309 21.9798C11.1432 23.3005 15.6306 24.1543 20.6663 24.1543C25.7021 24.1543 30.1895 23.3005 33.3596 21.9798C34.9481 21.318 36.1314 20.5698 36.8937 19.8192C37.6505 19.0739 37.9045 18.4215 37.9045 17.8859C37.9045 17.0204 38.6062 16.3188 39.4716 16.3188C40.3371 16.3188 41.0387 17.0204 41.0387 17.8859C41.0387 19.5139 40.2399 20.9228 39.0929 22.0523C37.9514 23.1765 36.38 24.1168 34.5649 24.873C30.9279 26.3882 26.0127 27.2886 20.6663 27.2886C15.32 27.2886 10.4047 26.3882 6.76774 24.873C4.95267 24.1168 3.38134 23.1765 2.23981 22.0523C1.0928 20.9228 0.293945 19.5139 0.293945 17.8859C0.293945 17.0204 0.995563 16.3188 1.86105 16.3188Z" fill="#008FED"/>
<path fill-rule="evenodd" clip-rule="evenodd" d="M1.86105 24.742C2.72654 24.742 3.42816 25.4436 3.42816 26.3091C3.42816 26.8447 3.6822 27.4971 4.43899 28.2424C5.20125 28.993 6.3846 29.7412 7.97309 30.403C11.1432 31.7237 15.6306 32.5775 20.6663 32.5775C25.7021 32.5775 30.1895 31.7237 33.3596 30.403C34.9481 29.7412 36.1314 28.993 36.8937 28.2424C37.6505 27.4971 37.9045 26.8447 37.9045 26.3091C37.9045 25.4436 38.6062 24.742 39.4716 24.742C40.3371 24.742 41.0387 25.4436 41.0387 26.3091C41.0387 27.9371 40.2399 29.346 39.0929 30.4755C37.9514 31.5997 36.38 32.54 34.5649 33.2962C30.9279 34.8114 26.0127 35.7118 20.6663 35.7118C15.32 35.7118 10.4047 34.8114 6.76774 33.2962C4.95267 32.54 3.38134 31.5997 2.23981 30.4755C1.0928 29.346 0.293945 27.9371 0.293945 26.3091C0.293945 25.4436 0.995563 24.742 1.86105 24.742Z" fill="#008FED"/>
<path fill-rule="evenodd" clip-rule="evenodd" d="M1.86105 7.82214C2.72654 7.82214 3.42816 8.52376 3.42816 9.38925V34.6119C3.42816 35.1317 3.67697 35.7728 4.43365 36.5109C5.19534 37.2539 6.37876 37.9952 7.9682 38.6511C11.1398 39.9598 15.6289 40.8058 20.6663 40.8058C25.7038 40.8058 30.1929 39.9598 33.3645 38.6511C34.9539 37.9952 36.1374 37.2539 36.899 36.5109C37.6557 35.7728 37.9045 35.1317 37.9045 34.6119V9.38925C37.9045 8.52376 38.6062 7.82214 39.4716 7.82214C40.3371 7.82214 41.0387 8.52376 41.0387 9.38925V34.6119C41.0387 36.235 40.2347 37.6356 39.0875 38.7545C37.9454 39.8685 36.3742 40.7997 34.5601 41.5483C30.9245 43.0485 26.011 43.9401 20.6663 43.9401C15.3217 43.9401 10.4082 43.0485 6.77263 41.5483C4.95851 40.7997 3.38725 39.8685 2.24515 38.7545C1.09804 37.6356 0.293945 36.235 0.293945 34.6119V9.38925C0.293945 8.52376 0.995563 7.82214 1.86105 7.82214Z" fill="#008FED"/>
</svg>
