<svg width="12" height="12" viewBox="0 0 12 12" fill="none" xmlns="http://www.w3.org/2000/svg">
<path fill-rule="evenodd" clip-rule="evenodd" d="M2.1168 2.53731C1.93579 2.71562 1.875 2.87175 1.875 3C1.875 3.12825 1.93579 3.28438 2.1168 3.46269C2.29913 3.6423 2.5822 3.82132 2.96225 3.97967C3.72071 4.29569 4.7945 4.5 6 4.5C7.2055 4.5 8.27929 4.29569 9.03775 3.97967C9.4178 3.82132 9.70087 3.6423 9.8832 3.46269C10.0642 3.28438 10.125 3.12825 10.125 3C10.125 2.87175 10.0642 2.71562 9.8832 2.53731C9.70087 2.3577 9.4178 2.17868 9.03775 2.02033C8.27929 1.70431 7.2055 1.5 6 1.5C4.7945 1.5 3.72071 1.70431 2.96225 2.02033C2.5822 2.17868 2.29913 2.3577 2.1168 2.53731ZM2.67379 1.32802C3.54401 0.965428 4.72022 0.75 6 0.75C7.27978 0.75 8.45599 0.965428 9.32621 1.32802C9.7605 1.50898 10.1364 1.73399 10.4095 2.00302C10.684 2.27335 10.875 2.61048 10.875 3C10.875 3.38952 10.684 3.72665 10.4095 3.99698C10.1364 4.26601 9.7605 4.49102 9.32621 4.67198C8.45599 5.03457 7.27978 5.25 6 5.25C4.72022 5.25 3.54401 5.03457 2.67379 4.67198C2.2395 4.49102 1.86356 4.26601 1.59046 3.99698C1.31605 3.72665 1.125 3.38952 1.125 3C1.125 2.61048 1.31605 2.27335 1.59046 2.00302C1.86356 1.73399 2.2395 1.50898 2.67379 1.32802Z" fill="#006201"/>
<path fill-rule="evenodd" clip-rule="evenodd" d="M1.5 4.64062C1.70711 4.64062 1.875 4.80852 1.875 5.01562C1.875 5.1438 1.93579 5.2999 2.11689 5.47824C2.29929 5.65787 2.58246 5.8369 2.96258 5.99527C3.72117 6.31131 4.79497 6.51562 6 6.51562C7.20503 6.51562 8.27883 6.31131 9.03742 5.99527C9.41754 5.8369 9.70071 5.65787 9.88311 5.47824C10.0642 5.2999 10.125 5.1438 10.125 5.01562C10.125 4.80852 10.2929 4.64062 10.5 4.64062C10.7071 4.64062 10.875 4.80852 10.875 5.01562C10.875 5.40519 10.6838 5.74232 10.4094 6.01262C10.1362 6.28163 9.76019 6.50663 9.32586 6.68759C8.45554 7.05017 7.27934 7.26562 6 7.26562C4.72066 7.26562 3.54446 7.05017 2.67414 6.68759C2.23981 6.50663 1.8638 6.28163 1.59063 6.01262C1.31616 5.74232 1.125 5.40519 1.125 5.01562C1.125 4.80852 1.29289 4.64062 1.5 4.64062Z" fill="#006201"/>
<path fill-rule="evenodd" clip-rule="evenodd" d="M1.5 6.65625C1.70711 6.65625 1.875 6.82414 1.875 7.03125C1.875 7.15942 1.93579 7.31553 2.11689 7.49387C2.29929 7.6735 2.58246 7.85253 2.96258 8.01089C3.72117 8.32693 4.79497 8.53125 6 8.53125C7.20503 8.53125 8.27883 8.32693 9.03742 8.01089C9.41754 7.85253 9.70071 7.6735 9.88311 7.49387C10.0642 7.31553 10.125 7.15942 10.125 7.03125C10.125 6.82414 10.2929 6.65625 10.5 6.65625C10.7071 6.65625 10.875 6.82414 10.875 7.03125C10.875 7.42081 10.6838 7.75795 10.4094 8.02825C10.1362 8.29725 9.76019 8.52226 9.32586 8.70321C8.45554 9.0658 7.27934 9.28125 6 9.28125C4.72066 9.28125 3.54446 9.0658 2.67414 8.70321C2.23981 8.52226 1.8638 8.29725 1.59063 8.02825C1.31616 7.75795 1.125 7.42081 1.125 7.03125C1.125 6.82414 1.29289 6.65625 1.5 6.65625Z" fill="#006201"/>
<path fill-rule="evenodd" clip-rule="evenodd" d="M1.5 2.60742C1.70711 2.60742 1.875 2.77532 1.875 2.98242V9.01805C1.875 9.14244 1.93454 9.29586 2.11561 9.47248C2.29788 9.65027 2.58106 9.82765 2.96141 9.98461C3.72035 10.2978 4.79458 10.5002 6 10.5002C7.20542 10.5002 8.27965 10.2978 9.03859 9.98461C9.41894 9.82765 9.70212 9.65027 9.88439 9.47248C10.0655 9.29586 10.125 9.14244 10.125 9.01805V2.98242C10.125 2.77532 10.2929 2.60742 10.5 2.60742C10.7071 2.60742 10.875 2.77532 10.875 2.98242V9.01805C10.875 9.40647 10.6826 9.7416 10.4081 10.0094C10.1348 10.2759 9.7588 10.4988 9.32469 10.6779C8.45472 11.0369 7.27895 11.2502 6 11.2502C4.72105 11.2502 3.54528 11.0369 2.67531 10.6779C2.2412 10.4988 1.86521 10.2759 1.59191 10.0094C1.31741 9.7416 1.125 9.40647 1.125 9.01805V2.98242C1.125 2.77532 1.29289 2.60742 1.5 2.60742Z" fill="#006201"/>
</svg>
