<svg width="22" height="16" viewBox="0 0 22 16" fill="none" xmlns="http://www.w3.org/2000/svg">
<path d="M10.9996 6.02183C9.08643 3.00583 7.40835 1.5 5.96426 1.5C3.7976 1.5 2.42935 3.89742 1.63093 7.15175C0.868262 10.2598 1.08926 14.5 3.7976 14.5C5.00443 14.5 6.66626 12.8046 8.29126 10.5437C9.37459 9.03675 10.277 7.52875 10.9996 6.02183ZM10.9996 6.02183C12.9128 3.00583 14.5908 1.5 16.0349 1.5C18.2016 1.5 19.5698 3.89742 20.3683 7.15175C21.1309 10.2598 20.9099 14.5 18.2016 14.5C16.9948 14.5 15.3329 12.8046 13.7079 10.5437C12.6739 9.11897 11.7676 7.60583 10.9996 6.02183Z" stroke="white" stroke-width="2.16667" stroke-linecap="round" stroke-linejoin="round"/>
</svg>
