<svg width="25" height="25" viewBox="0 0 25 25" fill="none" xmlns="http://www.w3.org/2000/svg">
<path fill-rule="evenodd" clip-rule="evenodd" d="M3.5 12.2485C3.50023 10.2839 4.16157 8.37661 5.37754 6.83361C6.59351 5.29061 8.29336 4.2017 10.2034 3.7422C12.1135 3.2827 14.1226 3.47935 15.9073 4.30048C17.692 5.12161 19.1484 6.51945 20.0421 8.26894C20.9359 10.0184 21.2148 12.0178 20.8341 13.9451C20.4534 15.8724 19.4352 17.6155 17.9435 18.8938C16.4517 20.1721 14.5731 20.9112 12.6103 20.9921C10.6474 21.0729 8.71439 20.4909 7.1225 19.3397C6.91375 19.1885 6.8525 18.8322 7.12 18.5647L9.37 16.3147C10.2126 16.9451 11.2543 17.2507 12.3039 17.1754C13.3536 17.1001 14.341 16.649 15.085 15.9047L16.8525 14.136C16.9697 14.0188 17.0355 13.8598 17.0355 13.6941C17.0355 13.5284 16.9697 13.3694 16.8525 13.2522L15.9687 12.3685L17.9175 10.4147C17.9771 10.357 18.0246 10.2879 18.0573 10.2116C18.0899 10.1353 18.107 10.0533 18.1076 9.97032C18.1082 9.88734 18.0923 9.80506 18.0608 9.7283C18.0292 9.65154 17.9827 9.58183 17.924 9.52323C17.8652 9.46463 17.7953 9.41832 17.7185 9.38701C17.6416 9.35569 17.5593 9.33999 17.4763 9.34083C17.3934 9.34166 17.3114 9.35902 17.2352 9.39188C17.159 9.42473 17.0901 9.47244 17.0325 9.53221L15.0837 11.4847L13.3162 9.71721L15.2662 7.76471C15.3282 7.70761 15.378 7.63857 15.4126 7.56174C15.4471 7.48491 15.4658 7.40189 15.4675 7.31765C15.4692 7.23341 15.4539 7.1497 15.4224 7.07155C15.3909 6.9934 15.3439 6.92243 15.2843 6.86289C15.2247 6.80336 15.1536 6.75649 15.0754 6.72511C14.9972 6.69373 14.9135 6.67849 14.8293 6.68029C14.745 6.6821 14.662 6.70091 14.5853 6.73561C14.5085 6.77031 14.4395 6.82018 14.3825 6.88221L12.4325 8.83221L11.5487 7.94971C11.4315 7.83254 11.2726 7.76672 11.1069 7.76672C10.9411 7.76672 10.7822 7.83254 10.665 7.94971L8.8975 9.71721C8.15356 10.4612 7.70263 11.4483 7.62733 12.4977C7.55203 13.547 7.8574 14.5884 8.4875 15.431L6.2375 17.681C5.5125 18.406 5.4625 19.681 6.38875 20.3522C8.20789 21.6682 10.417 22.3337 12.6603 22.2416C14.9037 22.1494 17.0508 21.305 18.7559 19.8443C20.461 18.3836 21.6249 16.3915 22.0602 14.1889C22.4956 11.9863 22.177 9.70121 21.1557 7.70165C20.1345 5.70209 18.4701 4.10438 16.4305 3.16576C14.3908 2.22714 12.0947 2.00223 9.91168 2.52724C7.72868 3.05224 5.78588 4.29662 4.39608 6.06002C3.00628 7.82341 2.25035 10.0032 2.25 12.2485C2.25 12.4142 2.31585 12.5732 2.43306 12.6904C2.55027 12.8076 2.70924 12.8735 2.875 12.8735C3.04076 12.8735 3.19973 12.8076 3.31694 12.6904C3.43415 12.5732 3.5 12.4142 3.5 12.2485Z" fill="white"/>
</svg>
