<svg width="64" height="64" viewBox="0 0 64 64" fill="none" xmlns="http://www.w3.org/2000/svg">
<g clip-path="url(#clip0_4027_883)">
<path d="M29.3599 15.361C29.8292 13.6064 30.625 12.0559 31.6453 10.6889H17.3002L16.8513 11.6274C17.8308 11.8111 18.7082 12.2599 18.7082 13.3616C18.7082 13.9329 18.443 14.8305 18.2593 15.3406L5.85278 50.8809C10.9337 50.5136 16.8105 49.7792 22.7077 48.3918C23.6055 45.0663 26.4419 34.7837 28.6457 26.7249C28.4416 22.4405 28.3804 18.9313 29.3395 15.361" fill="#003D7E"/>
<path d="M49.7281 10.7304C49.9934 11.4649 50.2587 12.2401 50.5035 13.0358C50.626 13.199 50.7688 13.3826 50.9116 13.5459C58.1352 19.3808 60.4614 36.4981 39.9743 46.0054C30.1593 50.5551 16.304 51.82 5.75434 52.0036L2.44866 61.715C2.06095 62.7351 0.326488 62.9595 0.326488 62.9595L0 64L10.8353 63.1227C10.8353 63.1227 38.0766 61.6742 51.9523 50.6775C74.9901 32.3973 59.6656 11.0364 49.7485 10.7508" fill="#003D7E"/>
<path d="M51.3995 0C51.3995 0 39.0746 6.58984 41.5437 19.5043C39.1154 14.5262 39.3603 7.63034 45.2371 3.85598C37.0749 6.1614 32.6061 9.30331 30.6268 15.0975C29.1168 19.5247 29.7085 24.3804 29.9738 30.603C30.2187 36.0299 27.4639 39.131 27.4639 39.131C27.4639 39.131 46.8287 29.7461 49.257 23.1563C52.7259 13.7101 46.1349 8.81366 47.951 4.52924C48.7672 2.61145 49.8079 1.53015 51.4199 0M37.6054 30.5826C40.7071 28.0731 44.8698 20.5448 47.6857 21.0141C45.584 24.5028 41.6661 28.4608 37.6054 30.5826Z" fill="#56B847"/>
</g>
<defs>
<clipPath id="clip0_4027_883">
<rect width="64" height="64" fill="white"/>
</clipPath>
</defs>
</svg>
